G75*
%MOIN*%
%OFA0B0*%
%FSLAX24Y24*%
%IPPOS*%
%LPD*%
%AMOC8*
5,1,8,0,0,1.08239X$1,22.5*
%
%ADD10R,0.0594X0.0594*%
%ADD11C,0.0660*%
%ADD12C,0.0594*%
%ADD13C,0.0520*%
%ADD14C,0.0709*%
%ADD15C,0.0740*%
%ADD16R,0.0740X0.0740*%
%ADD17R,0.0650X0.0650*%
%ADD18C,0.0650*%
%ADD19C,0.0160*%
D10*
X006960Y020558D03*
D11*
X006960Y021558D03*
X008960Y021558D03*
D12*
X009960Y021558D03*
X010960Y021558D03*
X011960Y021558D03*
X012960Y021558D03*
X013960Y021558D03*
X014960Y021558D03*
X015960Y021558D03*
X016960Y021558D03*
X017960Y021558D03*
X018960Y021558D03*
X018960Y020558D03*
X017960Y020558D03*
X016960Y020558D03*
X015960Y020558D03*
X014960Y020558D03*
X013960Y020558D03*
X012960Y020558D03*
X011960Y020558D03*
X010960Y020558D03*
X009960Y020558D03*
X008960Y020558D03*
X007960Y020558D03*
X007960Y021558D03*
D13*
X017460Y015818D02*
X017460Y015298D01*
X018460Y015298D02*
X018460Y015818D01*
X019460Y015818D02*
X019460Y015298D01*
X020460Y015298D02*
X020460Y015818D01*
X021460Y015818D02*
X021460Y015298D01*
X022460Y015298D02*
X022460Y015818D01*
X023460Y015818D02*
X023460Y015298D01*
X024460Y015298D02*
X024460Y015818D01*
X026950Y015808D02*
X027470Y015808D01*
X027470Y014808D02*
X026950Y014808D01*
X026950Y013808D02*
X027470Y013808D01*
X027470Y012808D02*
X026950Y012808D01*
X026950Y011808D02*
X027470Y011808D01*
X027470Y010808D02*
X026950Y010808D01*
X026950Y009808D02*
X027470Y009808D01*
X027470Y008808D02*
X026950Y008808D01*
X024460Y007818D02*
X024460Y007298D01*
X023460Y007298D02*
X023460Y007818D01*
X022460Y007818D02*
X022460Y007298D01*
X021460Y007298D02*
X021460Y007818D01*
X020460Y007818D02*
X020460Y007298D01*
X019460Y007298D02*
X019460Y007818D01*
X018460Y007818D02*
X018460Y007298D01*
X017460Y007298D02*
X017460Y007818D01*
X017460Y005818D02*
X017460Y005298D01*
X018460Y005298D02*
X018460Y005818D01*
X019460Y005818D02*
X019460Y005298D01*
X020460Y005298D02*
X020460Y005818D01*
X021460Y005818D02*
X021460Y005298D01*
X022460Y005298D02*
X022460Y005818D01*
X023460Y005818D02*
X023460Y005298D01*
X024460Y005298D02*
X024460Y005818D01*
X024460Y002818D02*
X024460Y002298D01*
X023460Y002298D02*
X023460Y002818D01*
X022460Y002818D02*
X022460Y002298D01*
X021460Y002298D02*
X021460Y002818D01*
X020460Y002818D02*
X020460Y002298D01*
X019460Y002298D02*
X019460Y002818D01*
X018460Y002818D02*
X018460Y002298D01*
X017460Y002298D02*
X017460Y002818D01*
X017460Y010298D02*
X017460Y010818D01*
X018460Y010818D02*
X018460Y010298D01*
X019460Y010298D02*
X019460Y010818D01*
X020460Y010818D02*
X020460Y010298D01*
X021460Y010298D02*
X021460Y010818D01*
X022460Y010818D02*
X022460Y010298D01*
X023460Y010298D02*
X023460Y010818D01*
X024460Y010818D02*
X024460Y010298D01*
X024460Y012298D02*
X024460Y012818D01*
X023460Y012818D02*
X023460Y012298D01*
X022460Y012298D02*
X022460Y012818D01*
X021460Y012818D02*
X021460Y012298D01*
X020460Y012298D02*
X020460Y012818D01*
X019460Y012818D02*
X019460Y012298D01*
X018460Y012298D02*
X018460Y012818D01*
X017460Y012818D02*
X017460Y012298D01*
X026950Y016808D02*
X027470Y016808D01*
X027470Y017808D02*
X026950Y017808D01*
X026950Y018808D02*
X027470Y018808D01*
X027470Y019808D02*
X026950Y019808D01*
X026950Y020808D02*
X027470Y020808D01*
X027470Y021808D02*
X026950Y021808D01*
X029950Y021808D02*
X030470Y021808D01*
X030470Y020808D02*
X029950Y020808D01*
X029950Y019808D02*
X030470Y019808D01*
X030470Y018808D02*
X029950Y018808D01*
X029950Y017808D02*
X030470Y017808D01*
X030470Y016808D02*
X029950Y016808D01*
X029950Y015808D02*
X030470Y015808D01*
X030470Y014808D02*
X029950Y014808D01*
X029950Y013808D02*
X030470Y013808D01*
X030470Y012808D02*
X029950Y012808D01*
X029950Y011808D02*
X030470Y011808D01*
X030470Y010808D02*
X029950Y010808D01*
X029950Y009808D02*
X030470Y009808D01*
X030470Y008808D02*
X029950Y008808D01*
D14*
X007315Y001558D02*
X006606Y001558D01*
X006606Y002558D02*
X007315Y002558D01*
X007315Y005558D02*
X006606Y005558D01*
X006606Y006558D02*
X007315Y006558D01*
X007315Y007808D02*
X006606Y007808D01*
X006606Y008808D02*
X007315Y008808D01*
X007315Y010058D02*
X006606Y010058D01*
X006606Y011058D02*
X007315Y011058D01*
X007315Y012308D02*
X006606Y012308D01*
X006606Y013308D02*
X007315Y013308D01*
X007315Y014558D02*
X006606Y014558D01*
X006606Y015558D02*
X007315Y015558D01*
X007315Y016808D02*
X006606Y016808D01*
X006606Y017808D02*
X007315Y017808D01*
D15*
X008460Y017808D03*
X008460Y016808D03*
X008460Y015558D03*
X008460Y014558D03*
X008460Y013308D03*
X008460Y012308D03*
X008460Y011058D03*
X008460Y010058D03*
X008460Y008808D03*
X008460Y007808D03*
X008460Y006558D03*
X008460Y005558D03*
X011460Y005558D03*
X012460Y005558D03*
X012460Y006558D03*
X011460Y006558D03*
X011460Y007808D03*
X012460Y007808D03*
X012460Y008808D03*
X011460Y008808D03*
X011460Y010058D03*
X012460Y010058D03*
X012460Y011058D03*
X011460Y011058D03*
X011460Y012308D03*
X012460Y012308D03*
X012460Y013308D03*
X011460Y013308D03*
X011460Y014558D03*
X012460Y014558D03*
X012460Y015558D03*
X011460Y015558D03*
X011460Y016808D03*
X012460Y016808D03*
X012460Y017808D03*
X011460Y017808D03*
X015460Y017808D03*
X015460Y016808D03*
X015460Y015558D03*
X015460Y014558D03*
X015460Y013308D03*
X015460Y012308D03*
X015460Y011058D03*
X015460Y010058D03*
X015460Y008808D03*
X015460Y007808D03*
X015460Y006558D03*
X015460Y005558D03*
X012460Y002058D03*
X011460Y002058D03*
X031460Y017308D03*
X033460Y017308D03*
X035460Y017308D03*
X037460Y017308D03*
X037460Y020308D03*
X036460Y020808D03*
X035460Y020308D03*
X034460Y020808D03*
X033460Y020308D03*
X032460Y020808D03*
X031460Y020308D03*
X032460Y021808D03*
X034460Y021808D03*
X036460Y021808D03*
X038460Y021808D03*
X038460Y020808D03*
D16*
X013460Y002058D03*
D17*
X010210Y004058D03*
X017210Y018308D03*
D18*
X017210Y017308D03*
X011210Y004058D03*
D19*
X011460Y005558D02*
X010960Y006058D01*
X007460Y006058D01*
X006960Y005558D01*
X006960Y006558D02*
X007460Y007058D01*
X010960Y007058D01*
X011460Y006558D01*
X012460Y006558D01*
X014460Y004558D01*
X020460Y004558D01*
X022460Y002558D01*
X019460Y002558D02*
X017960Y004058D01*
X013960Y004058D01*
X012460Y005558D01*
X011460Y005558D01*
X013210Y007058D02*
X012460Y007808D01*
X011460Y007808D01*
X010960Y008308D01*
X007460Y008308D01*
X006960Y007808D01*
X006960Y008808D02*
X007460Y009308D01*
X010960Y009308D01*
X011460Y008808D01*
X012460Y008808D01*
X013960Y007308D01*
X016460Y007308D01*
X017210Y006558D01*
X021460Y006558D01*
X022460Y005558D01*
X022210Y006808D02*
X020210Y006808D01*
X019960Y007058D01*
X019960Y008058D01*
X018460Y009558D01*
X013960Y009558D01*
X012460Y011058D01*
X011460Y011058D01*
X010960Y011558D01*
X007460Y011558D01*
X006960Y011058D01*
X007460Y010558D02*
X006960Y010058D01*
X007460Y010558D02*
X010960Y010558D01*
X011460Y010058D01*
X012460Y010058D01*
X013210Y009308D01*
X018210Y009308D01*
X019460Y008058D01*
X019460Y007558D01*
X019210Y006308D02*
X016960Y006308D01*
X016210Y007058D01*
X013210Y007058D01*
X019210Y006308D02*
X019460Y006058D01*
X019460Y005558D01*
X022210Y006808D02*
X022460Y007058D01*
X022460Y007558D01*
X022460Y010558D02*
X021210Y011558D01*
X019960Y011558D01*
X019710Y011808D01*
X013960Y011808D01*
X012460Y013308D01*
X011460Y013308D01*
X010960Y013808D01*
X007460Y013808D01*
X006960Y013308D01*
X007460Y012808D02*
X006960Y012308D01*
X007460Y012808D02*
X010960Y012808D01*
X011460Y012308D01*
X012460Y012308D01*
X013210Y011558D01*
X018460Y011558D01*
X019460Y010558D01*
X020210Y011808D02*
X019960Y012058D01*
X019960Y013058D01*
X019460Y013558D01*
X018460Y013558D01*
X015960Y016058D01*
X012960Y016058D01*
X012460Y015558D01*
X011460Y015558D01*
X010960Y016058D01*
X007460Y016058D01*
X006960Y015558D01*
X007460Y015058D02*
X006960Y014558D01*
X007460Y015058D02*
X010960Y015058D01*
X011460Y014558D01*
X012460Y014558D01*
X012960Y015058D01*
X015960Y015058D01*
X017710Y013308D01*
X018710Y013308D01*
X019460Y012558D01*
X020210Y011808D02*
X022210Y011808D01*
X022460Y012058D01*
X022460Y012558D01*
X022710Y014808D02*
X021460Y014808D01*
X022460Y015558D02*
X021460Y016558D01*
X016710Y016558D01*
X015960Y017308D01*
X012960Y017308D01*
X012460Y017808D01*
X011460Y017808D01*
X010960Y017308D01*
X007460Y017308D01*
X006960Y017808D01*
X006960Y016808D02*
X007460Y016308D01*
X010960Y016308D01*
X011460Y016808D01*
X012460Y016808D01*
X012960Y016308D01*
X018710Y016308D01*
X019460Y015558D01*
X020710Y016808D02*
X024710Y016808D01*
X025210Y016308D01*
X027960Y016308D01*
X029460Y017808D01*
X029460Y018558D01*
X029710Y018808D01*
X030210Y018808D01*
X030960Y018058D02*
X030960Y022058D01*
X030710Y022308D01*
X027460Y022308D01*
X027210Y022058D01*
X027210Y021808D01*
X027210Y020808D01*
X027210Y019808D01*
X029210Y019558D02*
X029460Y019808D01*
X030210Y019808D01*
X029210Y019558D02*
X029210Y018058D01*
X028460Y017308D01*
X025460Y017308D01*
X025210Y017058D01*
X021710Y017058D01*
X017960Y020558D01*
X017460Y020058D02*
X020710Y016808D01*
X022960Y016058D02*
X023210Y016308D01*
X024710Y016308D01*
X025210Y015808D01*
X026210Y015808D01*
X026710Y015308D01*
X027710Y015308D01*
X028210Y015808D01*
X028210Y016058D01*
X029960Y017808D01*
X030210Y017808D01*
X030710Y017808D01*
X030960Y018058D01*
X031210Y017308D02*
X031460Y017308D01*
X033460Y017308D01*
X035460Y017308D01*
X037460Y017308D01*
X031210Y017308D02*
X030710Y016808D01*
X030210Y016808D01*
X022960Y016058D02*
X022960Y015058D01*
X022710Y014808D01*
X017210Y017308D02*
X016710Y017808D01*
X015460Y017808D01*
X015460Y018058D01*
X014960Y018558D01*
X008960Y018558D01*
X008460Y019058D01*
X008460Y021308D01*
X008710Y021558D01*
X008960Y021558D01*
X017460Y021058D02*
X017460Y020058D01*
X017460Y021058D02*
X017960Y021558D01*
X012460Y002058D02*
X012460Y001558D01*
X011960Y001058D01*
X007460Y001058D01*
X006960Y001558D01*
M02*
