%
M48
M72
T01C0.0276
T02C0.0320
T03C0.0354
T04C0.0394
T05C0.0472
%
T01
X10210Y4058
X11210Y4058
X17210Y17308
X17210Y18308
T02
X17460Y15558
X18460Y15558
X19460Y15558
X20460Y15558
X21460Y15558
X22460Y15558
X23460Y15558
X24460Y15558
X27210Y15808
X27210Y14808
X27210Y13808
X27210Y12808
X27210Y11808
X27210Y10808
X27210Y9808
X27210Y8808
X24460Y7558
X23460Y7558
X22460Y7558
X21460Y7558
X20460Y7558
X19460Y7558
X18460Y7558
X17460Y7558
X17460Y5558
X18460Y5558
X19460Y5558
X20460Y5558
X21460Y5558
X22460Y5558
X23460Y5558
X24460Y5558
X24460Y2558
X23460Y2558
X22460Y2558
X21460Y2558
X20460Y2558
X19460Y2558
X18460Y2558
X17460Y2558
X30210Y8808
X30210Y9808
X30210Y10808
X30210Y11808
X30210Y12808
X30210Y13808
X30210Y14808
X30210Y15808
X30210Y16808
X30210Y17808
X30210Y18808
X30210Y19808
X30210Y20808
X30210Y21808
X32460Y21808
X32460Y20808
X34460Y20808
X34460Y21808
X36460Y21808
X36460Y20808
X38460Y20808
X38460Y21808
X27210Y21808
X27210Y20808
X27210Y19808
X27210Y18808
X27210Y17808
X27210Y16808
X24460Y12558
X23460Y12558
X22460Y12558
X21460Y12558
X20460Y12558
X19460Y12558
X18460Y12558
X17460Y12558
X17460Y10558
X18460Y10558
X19460Y10558
X20460Y10558
X21460Y10558
X22460Y10558
X23460Y10558
X24460Y10558
T03
X15460Y10058
X15460Y11058
X15460Y12308
X15460Y13308
X15460Y14558
X15460Y15558
X15460Y16808
X15460Y17808
X12460Y17808
X11460Y17808
X11460Y16808
X12460Y16808
X12460Y15558
X11460Y15558
X11460Y14558
X12460Y14558
X12460Y13308
X11460Y13308
X11460Y12308
X12460Y12308
X12460Y11058
X11460Y11058
X11460Y10058
X12460Y10058
X12460Y8808
X11460Y8808
X11460Y7808
X12460Y7808
X12460Y6558
X11460Y6558
X11460Y5558
X12460Y5558
X15460Y5558
X15460Y6558
X15460Y7808
X15460Y8808
X8460Y8808
X8460Y7808
X8460Y6558
X8460Y5558
X8460Y10058
X8460Y11058
X8460Y12308
X8460Y13308
X8460Y14558
X8460Y15558
X8460Y16808
X8460Y17808
X31460Y17308
X33460Y17308
X35460Y17308
X37460Y17308
X37460Y20308
X35460Y20308
X33460Y20308
X31460Y20308
T04
X18960Y20558
X17960Y20558
X16960Y20558
X15960Y20558
X14960Y20558
X13960Y20558
X12960Y20558
X11960Y20558
X10960Y20558
X9960Y20558
X8960Y20558
X7960Y20558
X6960Y20558
X6960Y21558
X7960Y21558
X8960Y21558
X9960Y21558
X10960Y21558
X11960Y21558
X12960Y21558
X13960Y21558
X14960Y21558
X15960Y21558
X16960Y21558
X17960Y21558
X18960Y21558
X13460Y2058
X12460Y2058
X11460Y2058
T05
X6960Y1558
X6960Y2558
X6960Y5558
X6960Y6558
X6960Y7808
X6960Y8808
X6960Y10058
X6960Y11058
X6960Y12308
X6960Y13308
X6960Y14558
X6960Y15558
X6960Y16808
X6960Y17808
M30
